<svg version="1.1" viewBox="0.0 0.0 960.0 540.0" fill="none" stroke="none" stroke-linecap="square" stroke-miterlimit="10" xmlns:xlink="http://www.w3.org/1999/xlink" xmlns="http://www.w3.org/2000/svg"><clipPath id="g41213e3843_0_0.0"><path d="m0 0l960.0 0l0 540.0l-960.0 0l0 -540.0z" clip-rule="nonzero"/></clipPath><g clip-path="url(#g41213e3843_0_0.0)"><path fill="#ffffff" d="m0 0l960.0 0l0 540.0l-960.0 0z" fill-rule="evenodd"/><path fill="#000000" fill-opacity="0.0" d="m90.48646 28.750078l170.4567 0l0 69.51181l-170.4567 0z" fill-rule="evenodd"/><path fill="#000000" d="m119.61146 81.261604q-4.53125 0.921875 -8.140625 0.921875q-3.59375 0 -5.828125 -0.984375q-2.21875 -1.0 -3.4375 -3.078125q-1.203125 -2.09375 -1.671875 -4.796875q-0.453125 -2.703125 -0.453125 -6.75q0 -4.062496 0.453125 -6.812496q0.46875 -2.75 1.671875 -4.859375q1.21875 -2.109375 3.421875 -3.078125q2.203125 -0.96875 5.71875 -0.96875q3.515625 0 8.265625 0.96875l-0.125 2.859375q-4.4375 -0.796875 -7.921875 -0.796875q-4.84375 0 -6.40625 2.890625q-1.5625 2.875 -1.5625 9.828121q0 3.484375 0.28125 5.59375q0.296875 2.109375 1.125 3.8125q0.84375 1.6875 2.453125 2.421875q1.609375 0.71875 4.703125 0.71875q3.109375 0 7.328125 -0.796875l0.125 2.90625zm20.514091 -14.875l0 11.265625q0.125 1.625 2.546875 1.9375l-0.125 2.59375q-3.484375 0 -5.234375 -1.75q-3.96875 1.75 -7.921875 1.75q-3.0468826 0 -4.6250076 -1.703125q-1.578125 -1.71875 -1.578125 -4.9375q0 -3.21875 1.625 -4.734375q1.625 -1.515625 5.0937576 -1.859375l6.921875 -0.671875l0 -1.890625q0 -2.234375 -0.96875 -3.2031212q-0.96875 -0.96875 -2.640625 -0.96875q-3.53125 0 -7.3125076 0.4375l-1.359375 0.125l-0.140625 -2.5q4.8437576 -0.96875 8.578133 -0.96875q3.75 0 5.4375 1.71875q1.703125 1.703125 1.703125 5.359371zm-13.562508 8.984375q0 4.046875 3.3437576 4.046875q3.0 0 5.90625 -1.015625l1.015625 -0.359375l0 -7.25l-6.515625 0.609375q-1.984375 0.1875 -2.8750076 1.15625q-0.875 0.953125 -0.875 2.8125zm26.981468 -13.109371q-4.796875 0 -4.796875 3.3437462q0 1.53125 1.09375 2.171875q1.109375 0.640625 5.015625 1.328125q3.921875 0.671875 5.546875 1.90625q1.625 1.234375 1.625 4.625q0 3.375 -2.171875 4.96875q-2.171875 1.578125 -6.359375 1.578125q-2.734375 0 -6.421875 -0.609375l-1.328125 -0.21875l0.1875 -2.859375q5.015625 0.734375 7.5625 0.734375q2.546875 0 3.890625 -0.8125q1.34375 -0.8125 1.34375 -2.71875q0 -1.921875 -1.140625 -2.59375q-1.140625 -0.6875 -5.015625 -1.296875q-3.875 -0.625 -5.5 -1.8125q-1.625 -1.1875 -1.625 -4.390625q0 -3.2187462 2.265625 -4.749996q2.265625 -1.546875 5.65625 -1.546875q2.671875 0 6.71875 0.609375l1.234375 0.21875l-0.078125 2.828125q-4.890625 -0.703125 -7.703125 -0.703125zm28.506836 16.749996l1.28125 -0.125l0.078125 2.59375q-5.015625 0.703125 -8.578125 0.703125q-4.75 0 -6.734375 -2.75q-1.96875 -2.75 -1.96875 -8.5625q0 -11.562496 9.1875 -11.562496q4.453125 0 6.640625 2.484375q2.203125 2.4843712 2.203125 7.812496l-0.171875 2.5l-14.515625 0q0 3.65625 1.3125 5.421875q1.328125 1.75 4.59375 1.75q3.28125 0 6.671875 -0.265625zm-1.1875 -9.546875q0 -4.046875 -1.296875 -5.718746q-1.296875 -1.671875 -4.234375 -1.671875q-2.921875 0 -4.390625 1.765625q-1.46875 1.7656212 -1.515625 5.624996l11.4375 0zm8.719955 12.28125l0 -31.593746l3.296875 0l0 31.593746l-3.296875 0zm25.429611 -15.359375l0 11.265625q0.125 1.625 2.546875 1.9375l-0.125 2.59375q-3.484375 0 -5.234375 -1.75q-3.96875 1.75 -7.921875 1.75q-3.046875 0 -4.625 -1.703125q-1.578125 -1.71875 -1.578125 -4.9375q0 -3.21875 1.625 -4.734375q1.625 -1.515625 5.09375 -1.859375l6.921875 -0.671875l0 -1.890625q0 -2.234375 -0.96875 -3.2031212q-0.96875 -0.96875 -2.640625 -0.96875q-3.53125 0 -7.3125 0.4375l-1.359375 0.125l-0.140625 -2.5q4.84375 -0.96875 8.578125 -0.96875q3.75 0 5.4375 1.71875q1.703125 1.703125 1.703125 5.359371zm-13.5625 8.984375q0 4.046875 3.34375 4.046875q3.0 0 5.90625 -1.015625l1.015625 -0.359375l0 -7.25l-6.515625 0.609375q-1.984375 0.1875 -2.875 1.15625q-0.875 0.953125 -0.875 2.8125zm18.26271 -15.624996l3.296875 0l4.453125 19.140621l0.703125 0l5.234375 -18.703121l3.4375 0l5.234375 18.703121l0.75 0l4.390625 -19.140621l3.296875 0l-5.234375 21.999996l-5.5 0l-4.65625 -17.203125l-4.671875 17.203125l-5.5 0l-5.234375 -21.999996z" fill-rule="nonzero"/><path fill="#000000" fill-opacity="0.0" d="m620.75684 35.20071l171.77954 0l0 56.881893l-171.77954 0z" fill-rule="evenodd"/><path fill="#000000" d="m646.2581 81.88165l-10.875 0l0 -30.453125l10.875 0q7.4375 0 9.859375 5.90625q1.40625 3.390625 1.40625 8.890625q0 11.46875 -5.71875 14.46875q-2.296875 1.1875 -5.546875 1.1875zm7.78125 -15.65625q0 -8.765625 -3.90625 -10.921875q-1.59375 -0.875 -3.875 -0.875l-7.484375 0l0 24.46875l7.484375 0q7.78125 0 7.78125 -12.671875zm8.192444 4.609375q0 -6.03125 2.15625 -8.703125q2.15625 -2.6875 7.28125 -2.6875q5.125 0 7.25 2.6875q2.140625 2.671875 2.140625 8.703125q0 6.03125 -2.03125 8.765625q-2.015625 2.71875 -7.390625 2.71875q-5.359375 0 -7.390625 -2.71875q-2.015625 -2.734375 -2.015625 -8.765625zm3.390625 -0.0625q0 4.8125 1.15625 6.75q1.171875 1.9375 4.890625 1.9375q3.71875 0 4.859375 -1.90625q1.140625 -1.921875 1.140625 -6.75q0 -4.84375 -1.28125 -6.671875q-1.265625 -1.828125 -4.71875 -1.828125q-3.453125 0 -4.75 1.828125q-1.296875 1.828125 -1.296875 6.640625zm29.028809 -11.328125q1.453125 0 4.9375 0.53125l1.046875 0.125l-0.125 2.6875q-3.515625 -0.390625 -5.1875 -0.390625q-3.75 0 -5.09375 1.78125q-1.34375 1.78125 -1.34375 6.59375q0 4.8125 1.25 6.703125q1.265625 1.890625 5.21875 1.890625l5.203125 -0.390625l0.125 2.734375q-4.09375 0.609375 -6.109375 0.609375q-5.15625 0 -7.109375 -2.640625q-1.953125 -2.640625 -1.953125 -8.90625q0 -6.265625 2.109375 -8.796875q2.109375 -2.53125 7.03125 -2.53125zm14.262085 22.4375l-3.296875 0l0 -31.59375l3.296875 0l0 18.65625l3.4375 -0.171875l6.28125 -8.890625l3.75 0l-7.171875 10.125l7.46875 11.875l-3.734375 0l-6.5625 -10.203125l-3.46875 0.125l0 10.078125zm32.73224 -2.734375l1.28125 -0.125l0.078125 2.59375q-5.015625 0.703125 -8.578125 0.703125q-4.75 0 -6.734375 -2.75q-1.96875 -2.75 -1.96875 -8.5625q0 -11.5625 9.1875 -11.5625q4.453125 0 6.640625 2.484375q2.203125 2.484375 2.203125 7.8125l-0.171875 2.5l-14.515625 0q0 3.65625 1.3125 5.421875q1.328125 1.75 4.59375 1.75q3.28125 0 6.671875 -0.265625zm-1.1875 -9.546875q0 -4.046875 -1.296875 -5.71875q-1.296875 -1.671875 -4.234375 -1.671875q-2.921875 0 -4.390625 1.765625q-1.46875 1.765625 -1.515625 5.625l11.4375 0zm19.84491 -6.859375l-7.0 0l0 10.515625q0 3.78125 0.546875 4.96875q0.5625 1.1875 2.625 1.1875l3.921875 -0.265625l0.21875 2.734375q-2.953125 0.484375 -4.484375 0.484375q-3.4375 0 -4.765625 -1.671875q-1.3125 -1.671875 -1.3125 -6.375l0 -11.578125l-3.124939 0l0 -2.859375l3.124939 0l0 -6.734375l3.25 0l0 6.734375l7.0 0l0 2.859375zm10.959595 -0.34375q-4.796875 0 -4.796875 3.34375q0 1.53125 1.09375 2.171875q1.109375 0.640625 5.015625 1.328125q3.921875 0.671875 5.546875 1.90625q1.625 1.234375 1.625 4.625q0 3.375 -2.171875 4.96875q-2.171875 1.578125 -6.359375 1.578125q-2.734375 0 -6.421875 -0.609375l-1.328125 -0.21875l0.1875 -2.859375q5.015625 0.734375 7.5625 0.734375q2.546875 0 3.890625 -0.8125q1.34375 -0.8125 1.34375 -2.71875q0 -1.921875 -1.140625 -2.59375q-1.140625 -0.6875 -5.015625 -1.296875q-3.875 -0.625 -5.5 -1.8125q-1.625 -1.1875 -1.625 -4.390625q0 -3.21875 2.265625 -4.75q2.265625 -1.546875 5.65625 -1.546875q2.671875 0 6.71875 0.609375l1.234375 0.21875l-0.078125 2.828125q-4.890625 -0.703125 -7.703125 -0.703125z" fill-rule="nonzero"/><path fill="#000000" fill-opacity="0.0" d="m224.75668 423.1074l468.9764 0l0 69.51184l-468.9764 0z" fill-rule="evenodd"/><path fill="#000000" d="m252.71071 476.1033l-10.875 0l0 -30.453125l10.875 0q7.4375153 0 9.85939 5.90625q1.40625 3.390625 1.40625 8.890625q0 11.46875 -5.71875 14.46875q-2.2968903 1.1875 -5.5468903 1.1875zm7.7812653 -15.65625q0 -8.765625 -3.90625 -10.921875q-1.5937653 -0.875 -3.8750153 -0.875l-7.484375 0l0 24.46875l7.484375 0q7.7812653 0 7.7812653 -12.671875zm24.692444 0.296875l0 11.265625q0.125 1.625 2.546875 1.9375l-0.125 2.59375q-3.484375 0 -5.234375 -1.75q-3.96875 1.75 -7.921875 1.75q-3.046875 0 -4.625 -1.703125q-1.578125 -1.71875 -1.578125 -4.9375q0 -3.21875 1.625 -4.734375q1.625 -1.515625 5.09375 -1.859375l6.921875 -0.671875l0 -1.890625q0 -2.234375 -0.96875 -3.203125q-0.96875 -0.96875 -2.640625 -0.96875q-3.53125 0 -7.3125 0.4375l-1.359375 0.125l-0.140625 -2.5q4.84375 -0.96875 8.578125 -0.96875q3.75 0 5.4375 1.71875q1.703125 1.703125 1.703125 5.359375zm-13.5625 8.984375q0 4.046875 3.34375 4.046875q3.0 0 5.90625 -1.015625l1.015625 -0.359375l0 -7.25l-6.515625 0.609375q-1.984375 0.1875 -2.875 1.15625q-0.875 0.953125 -0.875 2.8125zm33.793945 -15.625l3.3125 0l0 22.0l-3.3125 0l0 -1.546875q-3.296875 1.984375 -6.5 1.984375q-4.5 0 -5.96875 -2.328125q-1.46875 -2.328125 -1.46875 -8.625l0 -11.484375l3.296875 0l0 11.4375q0 4.796875 0.828125 6.421875q0.84375 1.625 3.796875 1.625q1.4375 0 2.9375 -0.40625q1.5 -0.421875 2.296875 -0.8125l0.78125 -0.40625l0 -17.859375zm19.363953 -0.4375q4.453125 0 6.234375 2.53125q1.78125 2.53125 1.78125 8.875q0 6.328125 -2.234375 8.90625q-2.21875 2.5625 -8.15625 2.5625q-1.84375 0 -6.109375 -0.34375l-1.234375 -0.140625l0 -31.546875l3.25 0l0 10.6875q3.34375 -1.53125 6.46875 -1.53125zm-2.421875 19.921875q4.3125 0 5.703125 -1.953125q1.390625 -1.953125 1.390625 -6.609375q0 -4.671875 -1.109375 -6.53125q-1.09375 -1.875 -3.90625 -1.875q-2.5625 0 -5.25 0.953125l-0.875 0.3125l0 15.484375q2.859375 0.21875 4.046875 0.21875zm30.800201 -0.21875l1.28125 -0.125l0.078125 2.59375q-5.015625 0.703125 -8.578125 0.703125q-4.75 0 -6.734375 -2.75q-1.96875 -2.75 -1.96875 -8.5625q0 -11.5625 9.1875 -11.5625q4.453125 0 6.640625 2.484375q2.203125 2.484375 2.203125 7.8125l-0.171875 2.5l-14.515625 0q0 3.65625 1.3125 5.421875q1.328125 1.75 4.59375 1.75q3.28125 0 6.671875 -0.265625zm-1.1875 -9.546875q0 -4.046875 -1.296875 -5.71875q-1.296875 -1.671875 -4.234375 -1.671875q-2.921875 0 -4.390625 1.765625q-1.46875 1.765625 -1.515625 5.625l11.4375 0zm8.454346 12.28125l0 -22.0l3.25 0l0 2.984375q3.828125 -2.625 8.046875 -3.46875l0 3.34375q-1.84375 0.359375 -3.84375 1.109375q-2.0 0.734375 -3.0625 1.3125l-1.09375 0.578125l0 16.140625l-3.296875 0zm26.614594 -19.140625l-7.0 0l0 10.515625q0 3.78125 0.546875 4.96875q0.5625 1.1875 2.625 1.1875l3.921875 -0.265625l0.21875 2.734375q-2.953125 0.484375 -4.484375 0.484375q-3.4375 0 -4.765625 -1.671875q-1.3125 -1.671875 -1.3125 -6.375l0 -11.578125l-3.125 0l0 -2.859375l3.125 0l0 -6.734375l3.25 0l0 6.734375l7.0 0l0 2.859375zm11.139557 -8.265625l0 -3.046875l22.0 0l0 3.046875l-9.296875 0l0 27.40625l-3.34375 0l0 -27.40625l-9.359375 0zm25.737701 27.40625l0 -22.0l3.25 0l0 2.984375q3.828125 -2.625 8.046875 -3.46875l0 3.34375q-1.84375 0.359375 -3.84375 1.109375q-2.0 0.734375 -3.0625 1.3125l-1.09375 0.578125l0 16.140625l-3.296875 0zm30.755219 -15.359375l0 11.265625q0.125 1.625 2.546875 1.9375l-0.125 2.59375q-3.484375 0 -5.234375 -1.75q-3.96875 1.75 -7.921875 1.75q-3.046875 0 -4.625 -1.703125q-1.578125 -1.71875 -1.578125 -4.9375q0 -3.21875 1.625 -4.734375q1.625 -1.515625 5.09375 -1.859375l6.921875 -0.671875l0 -1.890625q0 -2.234375 -0.96875 -3.203125q-0.96875 -0.96875 -2.640625 -0.96875q-3.53125 0 -7.3125 0.4375l-1.359375 0.125l-0.140625 -2.5q4.84375 -0.96875 8.578125 -0.96875q3.75 0 5.4375 1.71875q1.703125 1.703125 1.703125 5.359375zm-13.5625 8.984375q0 4.046875 3.34375 4.046875q3.0 0 5.90625 -1.015625l1.015625 -0.359375l0 -7.25l-6.515625 0.609375q-1.984375 0.1875 -2.875 1.15625q-0.875 0.953125 -0.875 2.8125zm28.293976 -16.0625q1.453125 0 4.9375 0.53125l1.046875 0.125l-0.125 2.6875q-3.515625 -0.390625 -5.1875 -0.390625q-3.75 0 -5.09375 1.78125q-1.34375 1.78125 -1.34375 6.59375q0 4.8125 1.25 6.703125q1.265625 1.890625 5.21875 1.890625l5.203125 -0.390625l0.125 2.734375q-4.09375 0.609375 -6.109375 0.609375q-5.15625 0 -7.109375 -2.640625q-1.953125 -2.640625 -1.953125 -8.90625q0 -6.265625 2.109375 -8.796875q2.109375 -2.53125 7.03125 -2.53125zm14.262085 22.4375l-3.296875 0l0 -31.59375l3.296875 0l0 18.65625l3.4375 -0.171875l6.28125 -8.890625l3.75 0l-7.171875 10.125l7.46875 11.875l-3.734375 0l-6.5625 -10.203125l-3.46875 0.125l0 10.078125zm32.73221 -2.734375l1.28125 -0.125l0.078125 2.59375q-5.015625 0.703125 -8.5781555 0.703125q-4.75 0 -6.734375 -2.75q-1.96875 -2.75 -1.96875 -8.5625q0 -11.5625 9.1875 -11.5625q4.4531555 0 6.6406555 2.484375q2.203125 2.484375 2.203125 7.8125l-0.171875 2.5l-14.5156555 0q0 3.65625 1.3125 5.421875q1.328125 1.75 4.59375 1.75q3.2812805 0 6.6719055 -0.265625zm-1.1875 -9.546875q0 -4.046875 -1.296875 -5.71875q-1.296875 -1.671875 -4.2344055 -1.671875q-2.921875 0 -4.390625 1.765625q-1.46875 1.765625 -1.515625 5.625l11.4375305 0zm8.454346 12.28125l0 -22.0l3.25 0l0 2.984375q3.828125 -2.625 8.046875 -3.46875l0 3.34375q-1.84375 0.359375 -3.84375 1.109375q-2.0 0.734375 -3.0625 1.3125l-1.09375 0.578125l0 16.140625l-3.296875 0zm24.90393 0l0 -22.0l3.25 0l0 2.984375q3.828125 -2.625 8.046875 -3.46875l0 3.34375q-1.84375 0.359375 -3.84375 1.109375q-2.0 0.734375 -3.0625 1.3125l-1.09375 0.578125l0 16.140625l-3.296875 0zm30.177063 -2.734375l1.28125 -0.125l0.078125 2.59375q-5.015625 0.703125 -8.578125 0.703125q-4.75 0 -6.734375 -2.75q-1.96875 -2.75 -1.96875 -8.5625q0 -11.5625 9.1875 -11.5625q4.453125 0 6.640625 2.484375q2.203125 2.484375 2.203125 7.8125l-0.171875 2.5l-14.515625 0q0 3.65625 1.3125 5.421875q1.328125 1.75 4.59375 1.75q3.28125 0 6.671875 -0.265625zm-1.1875 -9.546875q0 -4.046875 -1.296875 -5.71875q-1.296875 -1.671875 -4.234375 -1.671875q-2.921875 0 -4.390625 1.765625q-1.46875 1.765625 -1.515625 5.625l11.4375 0zm8.454346 22.046875l0 -31.765625l3.25 0l0 1.578125q3.34375 -2.015625 6.609375 -2.015625q4.171875 0 6.0625 2.671875q1.890625 2.65625 1.890625 8.765625q0 6.109375 -2.21875 8.78125q-2.21875 2.65625 -7.375 2.65625q-2.671875 0 -4.921875 -0.484375l0 9.8125l-3.296875 0zm9.375 -29.25q-1.328125 0 -2.84375 0.4375q-1.515625 0.4375 -2.40625 0.875l-0.828125 0.4375l0 14.828125q3.125 0.484375 4.75 0.484375q3.5625 0 4.984375 -2.015625q1.4375 -2.03125 1.4375 -6.609375q0 -4.578125 -1.296875 -6.5q-1.296875 -1.9375 -3.796875 -1.9375zm12.844177 8.4375q0 -6.03125 2.15625 -8.703125q2.15625 -2.6875 7.28125 -2.6875q5.125 0 7.25 2.6875q2.140625 2.671875 2.140625 8.703125q0 6.03125 -2.03125 8.765625q-2.015625 2.71875 -7.390625 2.71875q-5.359375 0 -7.390625 -2.71875q-2.015625 -2.734375 -2.015625 -8.765625zm3.390625 -0.0625q0 4.8125 1.15625 6.75q1.171875 1.9375 4.890625 1.9375q3.71875 0 4.859375 -1.90625q1.140625 -1.921875 1.140625 -6.75q0 -4.84375 -1.28125 -6.671875q-1.265625 -1.828125 -4.71875 -1.828125q-3.453125 0 -4.75 1.828125q-1.296875 1.828125 -1.296875 6.640625zm20.81012 11.109375l0 -22.0l3.25 0l0 2.984375q3.828125 -2.625 8.046875 -3.46875l0 3.34375q-1.84375 0.359375 -3.84375 1.109375q-2.0 0.734375 -3.0625 1.3125l-1.09375 0.578125l0 16.140625l-3.296875 0zm26.614563 -19.140625l-7.0 0l0 10.515625q0 3.78125 0.546875 4.96875q0.5625 1.1875 2.625 1.1875l3.921875 -0.265625l0.21875 2.734375q-2.953125 0.484375 -4.484375 0.484375q-3.4375 0 -4.765625 -1.671875q-1.3125 -1.671875 -1.3125 -6.375l0 -11.578125l-3.125 0l0 -2.859375l3.125 0l0 -6.734375l3.25 0l0 6.734375l7.0 0l0 2.859375zm10.959595 -0.34375q-4.796875 0 -4.796875 3.34375q0 1.53125 1.09375 2.171875q1.109375 0.640625 5.015625 1.328125q3.921875 0.671875 5.546875 1.90625q1.625 1.234375 1.625 4.625q0 3.375 -2.171875 4.96875q-2.171875 1.578125 -6.359375 1.578125q-2.734375 0 -6.421875 -0.609375l-1.328125 -0.21875l0.1875 -2.859375q5.015625 0.734375 7.5625 0.734375q2.546875 0 3.890625 -0.8125q1.34375 -0.8125 1.34375 -2.71875q0 -1.921875 -1.140625 -2.59375q-1.140625 -0.6875 -5.015625 -1.296875q-3.875 -0.625 -5.5 -1.8125q-1.625 -1.1875 -1.625 -4.390625q0 -3.21875 2.265625 -4.75q2.265625 -1.546875 5.65625 -1.546875q2.671875 0 6.71875 0.609375l1.234375 0.21875l-0.078125 2.828125q-4.890625 -0.703125 -7.703125 -0.703125z" fill-rule="nonzero"/><path fill="#000000" fill-opacity="0.0" d="m115.29427 83.42519l111.46456 0l0 69.51182l-111.46456 0z" fill-rule="evenodd"/><path fill="#999999" d="m137.2385 108.12422q4.125 -1.234375 8.859375 -1.234375q4.734375 0 6.84375 1.8125q2.109375 1.796875 2.109375 5.765625q0 2.015625 -0.546875 2.921875q-0.546875 0.90625 -0.875 1.390625q-0.328125 0.484375 -0.859375 0.921875q-0.96875 0.75 -1.546875 1.0625l-0.484375 0.296875q2.5625 0.921875 3.78125 2.359375q1.234375 1.421875 1.234375 4.6875q0 4.4375 -2.265625 6.59375q-2.265625 2.15625 -7.140625 2.15625q-3.875 0 -8.1875 -0.875l-1.359375 -0.3125l0.296875 -2.765625q4.75 0.96875 8.890625 0.96875q6.296875 -0.046875 6.296875 -5.640625q0 -5.234375 -5.984375 -5.453125l-5.859375 0l0 -2.90625l5.859375 0q1.84375 0 3.5625 -1.46875q1.71875 -1.46875 1.71875 -3.890625q0 -2.421875 -1.375 -3.5q-1.359375 -1.078125 -4.5625 -1.078125q-3.53125 0 -6.953125 0.65625l-1.15625 0.21875l-0.296875 -2.6875zm26.108704 0.6875q2.75 -1.921875 7.59375 -1.921875q4.84375 0 7.671875 1.921875q2.84375 1.90625 2.84375 5.65625q0 2.71875 -1.109375 4.15625q-1.09375 1.421875 -3.734375 2.609375q2.640625 1.203125 3.953125 2.8125q1.328125 1.59375 1.328125 4.5q0 8.3125 -10.890625 8.3125q-10.890625 0 -10.890625 -7.828125q0 -3.125 1.203125 -4.75q1.21875 -1.625 3.8125 -3.046875q-2.375 -1.1875 -3.453125 -2.703125q-1.078125 -1.515625 -1.078125 -4.109375q0 -3.703125 2.75 -5.609375zm0.375 19.640625q0 5.328125 7.28125 5.328125q7.28125 0 7.28125 -5.59375q0 -2.328125 -1.296875 -3.4375q-1.296875 -1.125 -3.84375 -1.875l-4.625 0q-2.421875 0.65625 -3.609375 1.953125q-1.1875 1.296875 -1.1875 3.625zm14.125 -13.59375q0 -4.875 -6.828125 -4.875q-6.8125 0 -6.8125 4.828125q0 1.9375 1.046875 3.125q1.0625 1.1875 3.265625 1.984375l4.625 0q2.375 -0.75 3.53125 -1.9375q1.171875 -1.1875 1.171875 -3.125zm27.108704 21.5625l-18.578125 0l0 -2.859375l8.5 -8.9375q2.203125 -2.28125 3.203125 -3.46875q1.015625 -1.1875 1.828125 -2.8125q0.8125 -1.640625 0.8125 -3.265625q0 -2.8125 -1.546875 -3.953125q-1.53125 -1.140625 -4.78125 -1.140625q-2.859375 0 -6.390625 0.734375l-1.140625 0.234375l-0.265625 -2.828125q4.1875 -1.1875 8.625 -1.1875q4.453125 0 6.71875 1.875q2.265625 1.875 2.265625 5.921875q0 3.078125 -1.375 5.375q-1.359375 2.28125 -4.703125 5.484375l-7.734375 7.875l14.5625 0l0 2.953125z" fill-rule="nonzero"/><path fill="#000000" fill-opacity="0.0" d="m647.9583 83.42519l111.46454 0l0 69.51182l-111.46454 0z" fill-rule="evenodd"/><path fill="#999999" d="m669.9025 108.12422q4.125 -1.234375 8.859375 -1.234375q4.734375 0 6.84375 1.8125q2.109375 1.796875 2.109375 5.765625q0 2.015625 -0.546875 2.921875q-0.546875 0.90625 -0.875 1.390625q-0.328125 0.484375 -0.859375 0.921875q-0.96875 0.75 -1.546875 1.0625l-0.484375 0.296875q2.5625 0.921875 3.78125 2.359375q1.234375 1.421875 1.234375 4.6875q0 4.4375 -2.265625 6.59375q-2.265625 2.15625 -7.140625 2.15625q-3.875 0 -8.1875 -0.875l-1.359375 -0.3125l0.296875 -2.765625q4.75 0.96875 8.890625 0.96875q6.296875 -0.046875 6.296875 -5.640625q0 -5.234375 -5.984375 -5.453125l-5.859375 0l0 -2.90625l5.859375 0q1.84375 0 3.5625 -1.46875q1.71875 -1.46875 1.71875 -3.890625q0 -2.421875 -1.375 -3.5q-1.359375 -1.078125 -4.5625 -1.078125q-3.53125 0 -6.953125 0.65625l-1.15625 0.21875l-0.296875 -2.6875zm43.077454 28.296875l-18.578125 0l0 -2.859375l8.5 -8.9375q2.203125 -2.28125 3.203125 -3.46875q1.015625 -1.1875 1.828125 -2.8125q0.8125 -1.640625 0.8125 -3.265625q0 -2.8125 -1.546875 -3.953125q-1.53125 -1.140625 -4.78125 -1.140625q-2.859375 0 -6.390625 0.734375l-1.140625 0.234375l-0.265625 -2.828125q4.1875 -1.1875 8.625 -1.1875q4.453125 0 6.71875 1.875q2.265625 1.875 2.265625 5.921875q0 3.078125 -1.375 5.375q-1.359375 2.28125 -4.703125 5.484375l-7.734375 7.875l14.5625 0l0 2.953125zm24.639954 0l-18.578125 0l0 -2.859375l8.5 -8.9375q2.203125 -2.28125 3.203125 -3.46875q1.015625 -1.1875 1.828125 -2.8125q0.8125 -1.640625 0.8125 -3.265625q0 -2.8125 -1.546875 -3.953125q-1.53125 -1.140625 -4.78125 -1.140625q-2.859375 0 -6.390625 0.734375l-1.140625 0.234375l-0.265625 -2.828125q4.1875 -1.1875 8.625 -1.1875q4.453125 0 6.71875 1.875q2.265625 1.875 2.265625 5.921875q0 3.078125 -1.375 5.375q-1.359375 2.28125 -4.703125 5.484375l-7.734375 7.875l14.5625 0l0 2.953125z" fill-rule="nonzero"/><path fill="#000000" fill-opacity="0.0" d="m424.26804 369.5958l111.46457 0l0 69.51181l-111.46457 0z" fill-rule="evenodd"/><path fill="#999999" d="m458.88412 422.5917l0 -5.671875l-14.078125 0l0 -2.640625l8.265625 -20.734375l3.703125 0l-8.40625 20.375l10.515625 0l0 -9.0625l3.390625 0l0 9.0625l3.6875 0l0 3.0l-3.6875 0l0 5.671875l-3.390625 0zm29.780579 -29.046875l0 3.09375l-14.125 0l-0.78125 9.453125q3.375 -1.796875 6.8125 -1.796875q9.234375 0 9.234375 8.578125q0 4.921875 -2.546875 7.515625q-2.546875 2.59375 -7.171875 2.59375q-3.6875 0 -8.1875 -0.96875l-1.453125 -0.296875l0.40625 -2.6875q5.0625 0.96875 8.515625 0.96875q3.453125 0 5.203125 -1.78125q1.765625 -1.78125 1.765625 -4.984375q0 -3.21875 -1.609375 -4.5625q-1.609375 -1.34375 -4.546875 -1.34375q-1.59375 0 -3.328125 0.4375q-1.734375 0.4375 -2.65625 0.875l-0.921875 0.4375l-2.34375 -0.4375l0.796875 -15.09375l16.9375 0zm6.8274536 0.75q4.125 -1.234375 8.859375 -1.234375q4.734375 0 6.84375 1.8125q2.1094055 1.796875 2.1094055 5.765625q0 2.015625 -0.546875 2.921875q-0.546875 0.90625 -0.8750305 1.390625q-0.328125 0.484375 -0.859375 0.921875q-0.96875 0.75 -1.546875 1.0625l-0.484375 0.296875q2.5625 0.921875 3.7812805 2.359375q1.234375 1.421875 1.234375 4.6875q0 4.4375 -2.2656555 6.59375q-2.265625 2.15625 -7.140625 2.15625q-3.875 0 -8.1875 -0.875l-1.359375 -0.3125l0.296875 -2.765625q4.75 0.96875 8.890625 0.96875q6.296875 -0.046875 6.296875 -5.640625q0 -5.234375 -5.984375 -5.453125l-5.859375 0l0 -2.90625l5.859375 0q1.84375 0 3.5625 -1.46875q1.71875 -1.46875 1.71875 -3.890625q0 -2.421875 -1.375 -3.5q-1.359375 -1.078125 -4.5625 -1.078125q-3.53125 0 -6.953125 0.65625l-1.15625 0.21875l-0.296875 -2.6875z" fill-rule="nonzero"/><path fill="#000000" fill-opacity="0.0" d="m221.2441 170.3887l476.0 0l0 147.93701l-476.0 0z" fill-rule="evenodd"/><path fill="#000000" d="m369.3841 213.75282l0 84.48439l-17.65625 0l0 -64.51564l-18.3125 11.78125l-8.0625 -13.1875l27.90625 -18.5625l16.125 0zm80.89874 0l0 15.359375l-37.765625 0l-2.171875 18.3125q7.9375 -3.078125 15.109375 -3.078125q27.390625 0 27.390625 25.468765q0 14.34375 -7.5625 22.15625q-7.546875 7.796875 -21.359375 7.796875q-5.890625 0 -13.390625 -1.15625q-7.484375 -1.140625 -11.953125 -2.421875l-4.609375 -1.15625l1.90625 -13.046875q15.5 2.421875 25.859375 2.421875q6.28125 0 9.609375 -3.328125q3.328125 -3.328125 3.328125 -9.53125q0 -6.203125 -2.828125 -9.015625q-2.8125 -2.828125 -7.921875 -2.828125q-8.578125 0 -15.109375 1.671875l-1.921875 0.5l-10.5 -2.421875l2.3125 -45.70314l51.578125 0zm20.289398 8.96875q8.25 -10.5 24.5 -10.5q16.265625 0 24.515594 10.5q8.265625 10.484375 8.265625 33.718765q0 23.234375 -8.203125 33.28125q-8.1874695 10.046875 -24.578094 10.046875q-16.375 0 -24.5625 -10.046875q-8.1875 -10.046875 -8.1875 -33.28125q0 -23.23439 8.25 -33.718765zm39.109375 33.343765q0 -15.812515 -3.328125 -22.14064q-3.328125 -6.34375 -11.203125 -6.34375q-7.875 0 -11.265625 6.40625q-3.390625 6.390625 -3.390625 22.14064q0 15.734375 3.453125 22.015625q3.453125 6.265625 11.265625 6.265625q7.8125 0 11.140625 -6.265625q3.328125 -6.28125 3.328125 -22.078125zm32.570587 -33.343765q8.25 -10.5 24.5 -10.5q16.265625 0 24.515625 10.5q8.265625 10.484375 8.265625 33.718765q0 23.234375 -8.203125 33.28125q-8.1875 10.046875 -24.578125 10.046875q-16.375 0 -24.5625 -10.046875q-8.1875 -10.046875 -8.1875 -33.28125q0 -23.23439 8.25 -33.718765zm39.109375 33.343765q0 -15.812515 -3.328125 -22.14064q-3.328125 -6.34375 -11.203125 -6.34375q-7.875 0 -11.265625 6.40625q-3.390625 6.390625 -3.390625 22.14064q0 15.734375 3.453125 22.015625q3.453125 6.265625 11.265625 6.265625q7.8125 0 11.140625 -6.265625q3.328125 -6.28125 3.328125 -22.078125z" fill-rule="nonzero"/></g></svg>